<svg width="106" height="24" viewBox="0 0 106 24" fill="none" xmlns="http://www.w3.org/2000/svg">
<path d="M102.789 1.20264H105.076V18.2487H102.789V1.20264Z" fill="white"/>
<path d="M86.6824 18.2485L94.1326 0.495117H94.2741L101.701 18.2485H99.0838L93.5197 4.07879L95.1464 3.01783L88.9222 18.2485H86.6824ZM91.0441 11.7884H97.3862L98.1407 13.7689H90.3839L91.0441 11.7884Z" fill="white"/>
<path d="M70.925 13.2738C70.925 12.2993 71.153 11.4191 71.6088 10.6332C72.0803 9.84732 72.7247 9.22646 73.5421 8.77064C74.3594 8.31482 75.2868 8.08691 76.3241 8.08691C77.393 8.08691 78.3282 8.31482 79.1298 8.77064C79.9314 9.22646 80.5522 9.84732 80.9923 10.6332C81.4324 11.4191 81.6525 12.2993 81.6525 13.2738C81.6525 14.2483 81.4324 15.1364 80.9923 15.938C80.5522 16.7239 79.9235 17.3447 79.1062 17.8006C78.3046 18.2564 77.3694 18.4843 76.3006 18.4843C75.2632 18.4843 74.3358 18.2721 73.5185 17.8477C72.7169 17.4076 72.0803 16.8025 71.6088 16.0323C71.153 15.2464 70.925 14.3269 70.925 13.2738ZM73.1177 13.2974C73.1177 13.9261 73.2592 14.4998 73.5421 15.0185C73.825 15.5215 74.2022 15.9223 74.6738 16.2209C75.161 16.5196 75.6954 16.6689 76.277 16.6689C76.89 16.6689 77.4322 16.5196 77.9038 16.2209C78.391 15.9223 78.7683 15.5215 79.0355 15.0185C79.3027 14.4998 79.4363 13.9261 79.4363 13.2974C79.4363 12.6687 79.3027 12.1028 79.0355 11.5999C78.7683 11.0812 78.391 10.6725 77.9038 10.3739C77.4322 10.0595 76.89 9.90233 76.277 9.90233C75.6797 9.90233 75.1374 10.0595 74.6502 10.3739C74.1786 10.6882 73.8014 11.1047 73.5185 11.6234C73.2513 12.1264 73.1177 12.6844 73.1177 13.2974Z" fill="white"/>
<path d="M60.8643 18.2484V0H63.0097V10.751L62.9626 10.3502C63.2927 9.70578 63.7956 9.17138 64.4715 8.74699C65.1631 8.32261 65.9726 8.11042 66.8999 8.11042C67.8273 8.11042 68.5817 8.38548 69.1633 8.93561C69.7606 9.47002 70.0671 10.1695 70.0828 11.0339V18.2484H67.8666V11.812C67.8509 11.2776 67.6937 10.8453 67.395 10.5153C67.1121 10.1695 66.6642 9.99657 66.0512 9.99657C65.4853 9.99657 64.9745 10.1616 64.5187 10.4917C64.0628 10.806 63.7013 11.2383 63.4341 11.7884C63.1826 12.3385 63.0569 12.9672 63.0569 13.6745V18.2484H60.8643Z" fill="white"/>
<path d="M55.4564 4.19678H57.649V8.53491H60.3368V10.256H57.649V18.2486H55.4564V10.256H53.6646V8.53491H55.4564V4.19678Z" fill="white"/>
<path d="M46.8757 18.4843C45.964 18.4843 45.131 18.2878 44.3765 17.8949C43.6378 17.5019 43.0484 16.9282 42.6083 16.1738C42.1839 15.4036 41.9717 14.4684 41.9717 13.3681C41.9717 12.2836 42.1996 11.3484 42.6554 10.5625C43.1112 9.76087 43.7164 9.14787 44.4708 8.72349C45.241 8.29911 46.0819 8.08691 46.9935 8.08691C47.9052 8.08691 48.6753 8.29911 49.3041 8.72349C49.9328 9.13215 50.4122 9.61941 50.7422 10.1852L50.6008 10.5625L50.813 8.48772H52.8406V18.2485H50.6479V15.7022L50.8837 16.2681C50.8208 16.4252 50.6794 16.6296 50.4593 16.8811C50.255 17.1168 49.9721 17.3605 49.6106 17.6119C49.2648 17.8634 48.864 18.0756 48.4081 18.2485C47.9523 18.4057 47.4415 18.4843 46.8757 18.4843ZM47.4651 16.6689C48.0152 16.6689 48.5103 16.5667 48.9504 16.3624C49.3905 16.158 49.752 15.8751 50.0349 15.5136C50.3336 15.1364 50.5379 14.6884 50.6479 14.1697V12.26C50.5222 11.7885 50.3022 11.3798 49.9878 11.034C49.6734 10.6725 49.2962 10.3974 48.8561 10.2088C48.416 10.0045 47.9288 9.90233 47.3943 9.90233C46.8128 9.90233 46.2784 10.0438 45.7911 10.3267C45.3039 10.6096 44.9109 11.0026 44.6123 11.5056C44.3294 12.0085 44.1879 12.5979 44.1879 13.2738C44.1879 13.9025 44.3372 14.4762 44.6359 14.9949C44.9345 15.5136 45.3353 15.9223 45.8383 16.2209C46.3412 16.5196 46.8835 16.6689 47.4651 16.6689Z" fill="white"/>
<path d="M36.0135 1.20264C37.2552 1.20264 38.3161 1.41483 39.1963 1.83921C40.0765 2.24788 40.7524 2.84515 41.2239 3.63105C41.7112 4.41694 41.9548 5.36787 41.9548 6.48384C41.9548 7.15971 41.8526 7.82772 41.6483 8.48787C41.444 9.1323 41.1139 9.72172 40.6581 10.2561C40.218 10.7748 39.6364 11.1913 38.9134 11.5057C38.1904 11.8201 37.3102 11.9772 36.2728 11.9772H33.7501V18.2487H31.4631V1.20264H36.0135ZM36.2492 9.78459C36.9251 9.78459 37.4831 9.67457 37.9232 9.45452C38.3633 9.23447 38.7091 8.95941 38.9606 8.62933C39.212 8.28354 39.3928 7.92203 39.5028 7.5448C39.6128 7.16757 39.6679 6.82963 39.6679 6.531C39.6679 6.1852 39.6128 5.83155 39.5028 5.47004C39.3928 5.09281 39.2042 4.75488 38.937 4.45624C38.6855 4.14188 38.3476 3.89039 37.9232 3.70178C37.5145 3.49745 37.0037 3.39528 36.3907 3.39528H33.7501V9.78459H36.2492Z" fill="white"/>
<path d="M23.6433 23.0818C22.9203 23.0818 22.2837 22.9953 21.7336 22.8224C21.1835 22.6652 20.6805 22.4373 20.2247 22.1387C19.7846 21.8401 19.3602 21.5021 18.9515 21.1249L20.2247 19.6396C20.7434 20.1268 21.2699 20.504 21.8043 20.7712C22.3388 21.0384 22.936 21.172 23.5962 21.172C24.3349 21.172 24.9558 21.0463 25.4587 20.7948C25.9774 20.559 26.3704 20.2211 26.6376 19.781C26.9048 19.3566 27.0384 18.8615 27.0384 18.2957L27.062 15.6551L27.2506 16.0795C26.9677 16.7553 26.4568 17.329 25.7181 17.8006C24.9794 18.2564 24.0834 18.4843 23.0303 18.4843C22.1344 18.4843 21.3092 18.2564 20.5548 17.8006C19.816 17.3447 19.2188 16.7317 18.7629 15.9616C18.3228 15.1757 18.1028 14.2955 18.1028 13.321C18.1028 12.2993 18.3386 11.4034 18.8101 10.6332C19.2816 9.84732 19.9025 9.22646 20.6727 8.77064C21.4428 8.31482 22.2837 8.08691 23.1954 8.08691C24.0599 8.08691 24.8458 8.26767 25.5531 8.62918C26.2761 8.97497 26.8026 9.42293 27.1327 9.97306L27.0148 10.3739L27.2506 8.48772H29.2546V18.3192C29.2546 19.1994 29.0267 20.0011 28.5709 20.7241C28.1151 21.4471 27.4706 22.0208 26.6376 22.4452C25.8045 22.8696 24.8065 23.0818 23.6433 23.0818ZM20.2954 13.2738C20.2954 13.9025 20.4447 14.4762 20.7434 14.9949C21.042 15.5136 21.4428 15.9223 21.9458 16.2209C22.4645 16.5196 23.0382 16.6689 23.6669 16.6689C24.2485 16.6689 24.7672 16.5667 25.223 16.3624C25.6945 16.1423 26.0875 15.8515 26.4018 15.49C26.7162 15.1128 26.9362 14.6806 27.062 14.1933V12.26C26.9205 11.7885 26.6847 11.3798 26.3547 11.034C26.0246 10.6725 25.6316 10.3974 25.1758 10.2088C24.72 10.0045 24.217 9.90233 23.6669 9.90233C23.0382 9.90233 22.4645 10.0438 21.9458 10.3267C21.4428 10.6096 21.042 11.0104 20.7434 11.5291C20.4447 12.0321 20.2954 12.6137 20.2954 13.2738Z" fill="white"/>
<path d="M15.0874 8.48761H17.28V18.2484H15.0874V8.48761ZM14.9224 4.95109C14.9224 4.6053 15.056 4.31452 15.3232 4.07875C15.6061 3.84298 15.9126 3.7251 16.2427 3.7251C16.5727 3.7251 16.8635 3.84298 17.115 4.07875C17.3822 4.31452 17.5158 4.6053 17.5158 4.95109C17.5158 5.3126 17.3822 5.61124 17.115 5.84701C16.8635 6.06706 16.5727 6.17709 16.2427 6.17709C15.9126 6.17709 15.6061 6.0592 15.3232 5.82343C15.056 5.58767 14.9224 5.29688 14.9224 4.95109Z" fill="white"/>
<path d="M0 18.2487V1.20264H4.64463C6.32644 1.20264 7.75677 1.46198 8.93561 1.98067C10.1302 2.49936 11.089 3.18309 11.812 4.03185C12.535 4.88062 13.0616 5.82369 13.3916 6.86107C13.7374 7.88273 13.9103 8.90439 13.9103 9.92605C13.9103 11.2149 13.6824 12.3702 13.2266 13.3918C12.7865 14.4135 12.1735 15.2858 11.3876 16.0089C10.6017 16.7319 9.69793 17.2899 8.67627 17.6828C7.67032 18.0601 6.60151 18.2487 5.46982 18.2487H0ZM2.28695 16.056H5.02186C5.96493 16.056 6.82941 15.9146 7.61531 15.6316C8.41692 15.3487 9.10851 14.9401 9.69007 14.4056C10.2873 13.8712 10.751 13.2189 11.0811 12.4488C11.4112 11.6629 11.5762 10.7748 11.5762 9.78459C11.5762 8.7315 11.4033 7.812 11.0575 7.02611C10.7117 6.2245 10.2402 5.55649 9.64291 5.02208C9.04563 4.48767 8.36977 4.08687 7.61531 3.81966C6.86085 3.53674 6.0671 3.39528 5.23405 3.39528H2.28695V16.056Z" fill="white"/>
</svg>
