<svg width="24" height="24" viewBox="0 0 24 24" fill="none" xmlns="http://www.w3.org/2000/svg">
<path fillRule="evenodd" clipRule="evenodd" d="M6.87683 5.54922C7.22615 5.43297 7.41494 5.056 7.29852 4.70725C7.18207 4.35853 6.80446 4.17004 6.45514 4.28629L5.96195 4.45041C5.45444 4.61928 5.02425 4.76241 4.68276 4.91826C4.31934 5.08408 4.00125 5.28756 3.74803 5.60676C3.49481 5.92592 3.36925 6.28167 3.2908 6.6728C3.21708 7.04037 3.17604 7.49121 3.12762 8.02309L2.50777 14.8301C2.46583 15.0673 2.44377 15.3114 2.44336 15.5606C2.4482 17.8847 4.33688 19.7833 6.66599 19.7833C8.76684 19.7833 10.5094 18.2517 10.8343 16.2459L11.029 16.1764C11.6569 15.9529 12.3428 15.9529 12.9707 16.1764L13.1654 16.2459C13.4903 18.2517 15.2328 19.7833 17.3337 19.7833C19.6628 19.7833 21.5514 17.8847 21.5563 15.5606C21.5559 15.3114 21.5338 15.0673 21.4919 14.8301L20.8721 8.02309C20.8236 7.49121 20.7826 7.04037 20.7089 6.6728C20.6304 6.28167 20.5048 5.92592 20.2517 5.60676C19.9984 5.28756 19.6803 5.08408 19.3169 4.91826C18.9754 4.76241 18.5453 4.61928 18.0378 4.45041L17.5445 4.28629C17.1952 4.17004 16.8177 4.35853 16.7012 4.70725C16.5847 5.056 16.7736 5.43297 17.1228 5.54922L17.5835 5.70249C18.1324 5.88515 18.4939 6.00639 18.7626 6.12904C19.0166 6.24495 19.1307 6.33784 19.2063 6.43327C19.2821 6.5287 19.3465 6.66075 19.4014 6.93422C19.4594 7.22343 19.4948 7.60258 19.5472 8.17774L19.9164 12.2323C19.2024 11.6805 18.3065 11.3521 17.3337 11.3521C15.2489 11.3521 13.5171 12.8604 13.1731 14.8435C12.4067 14.6222 11.5929 14.6222 10.8266 14.8435C10.4826 12.8604 8.75074 11.3521 6.66599 11.3521C5.6932 11.3521 4.79723 11.6805 4.08329 12.2323L4.12627 11.7604L4.4525 8.17774C4.50488 7.60258 4.5403 7.22343 4.5983 6.93422C4.65317 6.66075 4.71764 6.5287 4.79335 6.43327C4.86903 6.33784 4.98301 6.24495 5.2371 6.12904C5.50579 6.00639 5.86736 5.88515 6.41618 5.70249L6.87683 5.54922ZM20.1697 15.0141L20.2227 15.5964C20.2073 17.1762 18.9197 18.4521 17.3337 18.4521C15.7381 18.4521 14.4445 17.1607 14.4445 15.5677C14.4445 13.9748 15.7381 12.6833 17.3337 12.6833C18.7397 12.6833 19.9111 13.686 20.1697 15.0141ZM3.82997 15.0141L3.77695 15.5964C3.79238 17.1762 5.07991 18.4521 6.66599 18.4521C8.26164 18.4521 9.55516 17.1607 9.55516 15.5677C9.55516 13.9748 8.26164 12.6833 6.66599 12.6833C5.26 12.6833 4.08858 13.686 3.82997 15.0141Z" fill="#0EA5E9"/>
</svg>
