<svg width="717" height="717" viewBox="0 0 717 717" fill="none" xmlns="http://www.w3.org/2000/svg">
<path d="M156 525.785V367.803M156 367.803V209.82M156 367.803L537.032 367.119C546.961 367.101 555 359.034 555 349.088V206.238" stroke="#0EA5E9" stroke-width="51" stroke-linecap="round"/>
<path d="M155.5 237.291C180.077 237.291 200 217.334 200 192.715C200 168.096 180.077 148.139 155.5 148.139C130.923 148.139 111 168.096 111 192.715C111 217.334 130.923 237.291 155.5 237.291Z" fill="#0EA5E9"/>
<path d="M155.5 569.862C180.077 569.862 200 549.904 200 525.285C200 500.666 180.077 480.709 155.5 480.709C130.923 480.709 111 500.666 111 525.285C111 549.904 130.923 569.862 155.5 569.862Z" fill="#0EA5E9"/>
<path d="M554.5 237.291C579.077 237.291 599 217.334 599 192.715C599 168.096 579.077 148.139 554.5 148.139C529.923 148.139 510 168.096 510 192.715C510 217.334 529.923 237.291 554.5 237.291Z" fill="#0EA5E9"/>
</svg>
