<svg width="740" height="244" viewBox="0 0 740 244" fill="none" xmlns="http://www.w3.org/2000/svg">
<path d="M283.4 162V89.7H303.1C310.233 89.7 316.3 90.8 321.3 93C326.367 95.2 330.433 98.1 333.5 101.7C336.567 105.3 338.8 109.3 340.2 113.7C341.667 118.033 342.4 122.367 342.4 126.7C342.4 132.167 341.433 137.067 339.5 141.4C337.633 145.733 335.033 149.433 331.7 152.5C328.367 155.567 324.533 157.933 320.2 159.6C315.933 161.2 311.4 162 306.6 162H283.4ZM293.1 152.7H304.7C308.7 152.7 312.367 152.1 315.7 150.9C319.1 149.7 322.033 147.967 324.5 145.7C327.033 143.433 329 140.667 330.4 137.4C331.8 134.067 332.5 130.3 332.5 126.1C332.5 121.633 331.767 117.733 330.3 114.4C328.833 111 326.833 108.167 324.3 105.9C321.767 103.633 318.9 101.933 315.7 100.8C312.5 99.6 309.133 99 305.6 99H293.1V152.7ZM347.393 120.6H356.693V162H347.393V120.6ZM346.693 105.6C346.693 104.133 347.26 102.9 348.393 101.9C349.593 100.9 350.893 100.4 352.293 100.4C353.693 100.4 354.926 100.9 355.993 101.9C357.126 102.9 357.693 104.133 357.693 105.6C357.693 107.133 357.126 108.4 355.993 109.4C354.926 110.333 353.693 110.8 352.293 110.8C350.893 110.8 349.593 110.3 348.393 109.3C347.26 108.3 346.693 107.067 346.693 105.6ZM383.684 182.5C380.617 182.5 377.917 182.133 375.584 181.4C373.25 180.733 371.117 179.767 369.184 178.5C367.317 177.233 365.517 175.8 363.784 174.2L369.184 167.9C371.384 169.967 373.617 171.567 375.884 172.7C378.15 173.833 380.684 174.4 383.484 174.4C386.617 174.4 389.25 173.867 391.384 172.8C393.584 171.8 395.25 170.367 396.384 168.5C397.517 166.7 398.084 164.6 398.084 162.2L398.184 151L398.984 152.8C397.784 155.667 395.617 158.1 392.484 160.1C389.35 162.033 385.55 163 381.084 163C377.284 163 373.784 162.033 370.584 160.1C367.45 158.167 364.917 155.567 362.984 152.3C361.117 148.967 360.184 145.233 360.184 141.1C360.184 136.767 361.184 132.967 363.184 129.7C365.184 126.367 367.817 123.733 371.084 121.8C374.35 119.867 377.917 118.9 381.784 118.9C385.45 118.9 388.784 119.667 391.784 121.2C394.85 122.667 397.084 124.567 398.484 126.9L397.984 128.6L398.984 120.6H407.484V162.3C407.484 166.033 406.517 169.433 404.584 172.5C402.65 175.567 399.917 178 396.384 179.8C392.85 181.6 388.617 182.5 383.684 182.5ZM369.484 140.9C369.484 143.567 370.117 146 371.384 148.2C372.65 150.4 374.35 152.133 376.484 153.4C378.684 154.667 381.117 155.3 383.784 155.3C386.25 155.3 388.45 154.867 390.384 154C392.384 153.067 394.05 151.833 395.384 150.3C396.717 148.7 397.65 146.867 398.184 144.8V136.6C397.584 134.6 396.584 132.867 395.184 131.4C393.784 129.867 392.117 128.7 390.184 127.9C388.25 127.033 386.117 126.6 383.784 126.6C381.117 126.6 378.684 127.2 376.484 128.4C374.35 129.6 372.65 131.3 371.384 133.5C370.117 135.633 369.484 138.1 369.484 140.9ZM436.149 89.7C441.416 89.7 445.916 90.6 449.649 92.4C453.383 94.1333 456.249 96.6667 458.249 100C460.316 103.333 461.349 107.367 461.349 112.1C461.349 114.967 460.916 117.8 460.049 120.6C459.183 123.333 457.783 125.833 455.849 128.1C453.983 130.3 451.516 132.067 448.449 133.4C445.383 134.733 441.649 135.4 437.249 135.4H426.549V162H416.849V89.7H436.149ZM437.149 126.1C440.016 126.1 442.383 125.633 444.249 124.7C446.116 123.767 447.583 122.6 448.649 121.2C449.716 119.733 450.483 118.2 450.949 116.6C451.416 115 451.649 113.567 451.649 112.3C451.649 110.833 451.416 109.333 450.949 107.8C450.483 106.2 449.683 104.767 448.549 103.5C447.483 102.167 446.049 101.1 444.249 100.3C442.516 99.4333 440.349 99 437.749 99H426.549V126.1H437.149ZM482.222 163C478.355 163 474.822 162.167 471.622 160.5C468.489 158.833 465.989 156.4 464.122 153.2C462.322 149.933 461.422 145.967 461.422 141.3C461.422 136.7 462.389 132.733 464.322 129.4C466.255 126 468.822 123.4 472.022 121.6C475.289 119.8 478.855 118.9 482.722 118.9C486.589 118.9 489.855 119.8 492.522 121.6C495.189 123.333 497.222 125.4 498.622 127.8L498.022 129.4L498.922 120.6H507.522V162H498.222V151.2L499.222 153.6C498.955 154.267 498.355 155.133 497.422 156.2C496.555 157.2 495.355 158.233 493.822 159.3C492.355 160.367 490.655 161.267 488.722 162C486.789 162.667 484.622 163 482.222 163ZM484.722 155.3C487.055 155.3 489.155 154.867 491.022 154C492.889 153.133 494.422 151.933 495.622 150.4C496.889 148.8 497.755 146.9 498.222 144.7V136.6C497.689 134.6 496.755 132.867 495.422 131.4C494.089 129.867 492.489 128.7 490.622 127.9C488.755 127.033 486.689 126.6 484.422 126.6C481.955 126.6 479.689 127.2 477.622 128.4C475.555 129.6 473.889 131.267 472.622 133.4C471.422 135.533 470.822 138.033 470.822 140.9C470.822 143.567 471.455 146 472.722 148.2C473.989 150.4 475.689 152.133 477.822 153.4C479.955 154.667 482.255 155.3 484.722 155.3ZM518.616 102.4H527.916V120.8H539.316V128.1H527.916V162H518.616V128.1H511.016V120.8H518.616V102.4ZM541.553 162V84.6H550.653V130.2L550.453 128.5C551.853 125.767 553.986 123.5 556.853 121.7C559.786 119.9 563.22 119 567.153 119C571.086 119 574.286 120.167 576.753 122.5C579.286 124.767 580.586 127.733 580.653 131.4V162H571.253V134.7C571.186 132.433 570.52 130.6 569.253 129.2C568.053 127.733 566.153 127 563.553 127C561.153 127 558.986 127.7 557.053 129.1C555.12 130.433 553.586 132.267 552.453 134.6C551.386 136.933 550.853 139.6 550.853 142.6V162H541.553ZM584.227 140.9C584.227 136.767 585.193 133.033 587.127 129.7C589.127 126.367 591.86 123.733 595.327 121.8C598.793 119.867 602.727 118.9 607.127 118.9C611.66 118.9 615.627 119.867 619.027 121.8C622.427 123.733 625.06 126.367 626.927 129.7C628.793 133.033 629.727 136.767 629.727 140.9C629.727 145.033 628.793 148.8 626.927 152.2C625.06 155.533 622.393 158.167 618.927 160.1C615.527 162.033 611.56 163 607.027 163C602.627 163 598.693 162.1 595.227 160.3C591.827 158.433 589.127 155.867 587.127 152.6C585.193 149.267 584.227 145.367 584.227 140.9ZM593.527 141C593.527 143.667 594.127 146.1 595.327 148.3C596.527 150.433 598.127 152.133 600.127 153.4C602.193 154.667 604.46 155.3 606.927 155.3C609.527 155.3 611.827 154.667 613.827 153.4C615.893 152.133 617.493 150.433 618.627 148.3C619.76 146.1 620.327 143.667 620.327 141C620.327 138.333 619.76 135.933 618.627 133.8C617.493 131.6 615.893 129.867 613.827 128.6C611.827 127.267 609.527 126.6 606.927 126.6C604.393 126.6 602.093 127.267 600.027 128.6C598.027 129.933 596.427 131.7 595.227 133.9C594.093 136.033 593.527 138.4 593.527 141ZM651.059 162L682.659 86.7H683.259L714.759 162H703.659L680.059 101.9L686.959 97.4L660.559 162H651.059ZM669.559 134.6H696.459L699.659 143H666.759L669.559 134.6ZM719.377 89.7H729.077V162H719.377V89.7Z" fill="white"/>
<path d="M28.3664 74.1934L115.5 23.8868L202.634 74.1934V174.807L115.5 225.113L28.3664 174.807V74.1934Z" stroke="#B3CCDA" stroke-width="5"/>
<circle cx="115.5" cy="213.5" r="30.5" fill="url(#paint0_linear_889_578)"/>
<circle cx="200.5" cy="172.5" r="30.5" fill="url(#paint1_linear_889_578)"/>
<circle cx="30.5" cy="172.5" r="30.5" fill="url(#paint2_linear_889_578)"/>
<circle cx="30.5" cy="74.5" r="30.5" fill="url(#paint3_linear_889_578)"/>
<circle cx="200.5" cy="74.5" r="30.5" fill="url(#paint4_linear_889_578)"/>
<circle cx="115.5" cy="30.5" r="30.5" fill="url(#paint5_linear_889_578)"/>
<defs>
<linearGradient id="paint0_linear_889_578" x1="115.5" y1="183" x2="111" y2="227" gradientUnits="userSpaceOnUse">
<stop stop-color="#21A4EB"/>
<stop offset="1" stop-color="#135D85"/>
</linearGradient>
<linearGradient id="paint1_linear_889_578" x1="178" y1="153" x2="227" y2="188.5" gradientUnits="userSpaceOnUse">
<stop stop-color="#21A4EB"/>
<stop offset="1" stop-color="#135D85"/>
</linearGradient>
<linearGradient id="paint2_linear_889_578" x1="53" y1="150.5" x2="6.5" y2="187" gradientUnits="userSpaceOnUse">
<stop stop-color="#21A4EB"/>
<stop offset="1" stop-color="#135D85"/>
</linearGradient>
<linearGradient id="paint3_linear_889_578" x1="55" y1="90" x2="8.5" y2="51" gradientUnits="userSpaceOnUse">
<stop stop-color="#21A4EB"/>
<stop offset="1" stop-color="#135D85"/>
</linearGradient>
<linearGradient id="paint4_linear_889_578" x1="173.5" y1="89.5" x2="227" y2="57.5" gradientUnits="userSpaceOnUse">
<stop stop-color="#21A4EB"/>
<stop offset="1" stop-color="#135D85"/>
</linearGradient>
<linearGradient id="paint5_linear_889_578" x1="115" y1="61" x2="115" y2="-3.69125e-07" gradientUnits="userSpaceOnUse">
<stop stop-color="#21A4EB"/>
<stop offset="1" stop-color="#135D85"/>
</linearGradient>
</defs>
</svg>
