<svg width="24" height="24" viewBox="0 0 24 24" fill="none" xmlns="http://www.w3.org/2000/svg">
<path d="M5.92383 6.87812C5.92383 6.59269 6.15479 6.36133 6.43971 6.36133H11.3484C11.6333 6.36133 11.8642 6.59269 11.8642 6.87812C11.8642 7.16347 11.6333 7.39483 11.3484 7.39483H6.43971C6.15479 7.39483 5.92383 7.16347 5.92383 6.87812Z" fill="#0EA5E9" stroke="#0EA5E9" stroke-width="0.3"/>
<path d="M5.8877 10.2012C5.8877 9.92396 6.11206 9.69922 6.38882 9.69922H17.6563C17.9331 9.69922 18.1575 9.92396 18.1575 10.2012C18.1575 10.4785 17.9331 10.7032 17.6563 10.7032H6.38882C6.11206 10.7032 5.8877 10.4785 5.8877 10.2012Z" fill="#0EA5E9" stroke="#0EA5E9" stroke-width="0.3"/>
<path d="M5.8877 13.5226C5.8877 13.2372 6.11866 13.0059 6.40354 13.0059H17.6416C17.9265 13.0059 18.1575 13.2372 18.1575 13.5226C18.1575 13.808 17.9265 14.0394 17.6416 14.0394H6.40354C6.11866 14.0394 5.8877 13.808 5.8877 13.5226Z" fill="#0EA5E9" stroke="#0EA5E9" stroke-width="0.3"/>
<path d="M5.8877 16.8438C5.8877 16.5665 6.11206 16.3418 6.38882 16.3418H17.6563C17.9331 16.3418 18.1575 16.5665 18.1575 16.8438C18.1575 17.121 17.9331 17.3458 17.6563 17.3458H6.38882C6.11206 17.3458 5.8877 17.121 5.8877 16.8438Z" fill="#0EA5E9" stroke="#0EA5E9" stroke-width="0.3"/>
<path d="M21.1432 5.8927V4.65628C21.1432 4.21186 20.7836 3.85156 20.3399 3.85156H3.61487C3.1712 3.85156 2.81152 4.21186 2.81152 4.65628V18.6499C2.81152 19.4949 3.63278 20.1808 4.6447 20.1808H20.5322C21.5441 20.1808 21.1432 19.4949 21.1432 18.6499V7.38023V5.8927ZM4.6447 19.1602C4.30739 19.1602 4.03365 18.9316 4.03365 18.6499V5.67687C4.03365 5.23242 4.39331 4.87215 4.837 4.87215H19.1178C19.5614 4.87215 19.9211 5.23242 19.9211 5.67683V17.6293C19.9211 19.1602 21.1432 19.1602 21.1432 19.1602H4.6447Z" fill="#0EA5E9" stroke="#0EA5E9" stroke-width="0.3"/>
</svg>
