<svg width="24" height="24" viewBox="0 0 24 24" fill="none" xmlns="http://www.w3.org/2000/svg">
<path d="M4.38521 4.38867C3.88606 4.38867 3.48145 4.79399 3.48145 5.29401V18.7731C3.48145 19.2732 3.88606 19.6785 4.38521 19.6785H14.9088C15.4079 19.6785 15.8125 19.2732 15.8125 18.7731V17.4554C15.8125 17.193 15.6002 16.9803 15.3382 16.9803C15.0763 16.9803 14.864 17.193 14.864 17.4554V17.8797C14.864 18.3764 14.462 18.7791 13.9661 18.7791H5.33376C4.83462 18.7791 4.43 18.3738 4.43 17.8738V6.19343C4.43 5.69341 4.83462 5.28809 5.33376 5.28809H13.9661C14.462 5.28809 14.864 5.69076 14.864 6.18747V6.61177C14.864 6.8742 15.0763 7.08688 15.3382 7.08688C15.6002 7.08688 15.8125 6.8742 15.8125 6.61177V5.29401C15.8125 4.79399 15.4079 4.38867 14.9088 4.38867H4.38521Z" fill="#0EA5E9" stroke="#0EA5E9" stroke-width="0.5"/>
<path fillRule="evenodd" clipRule="evenodd" d="M14.3896 16.081C15.1185 16.081 15.8047 15.9077 16.4049 15.6023C16.7991 15.4017 17.2891 15.4193 17.61 15.7238L19.7426 17.7478C19.9278 17.9236 20.2281 17.9236 20.4133 17.7482C20.5987 17.5726 20.5988 17.2879 20.4137 17.1122L18.3444 15.1483C17.9965 14.8181 17.9778 14.2773 18.2031 13.8536C18.4941 13.3064 18.658 12.6882 18.658 12.0336C18.658 9.79838 16.7469 7.98633 14.3896 7.98633C12.0322 7.98633 10.1211 9.79838 10.1211 12.0336C10.1211 14.2688 12.0322 16.081 14.3896 16.081ZM14.3896 15.1815C16.2231 15.1815 17.7094 13.7721 17.7094 12.0336C17.7094 10.2951 16.2231 8.88571 14.3896 8.88571C12.556 8.88571 11.0696 10.2951 11.0696 12.0336C11.0696 13.7721 12.556 15.1815 14.3896 15.1815Z" fill="#0EA5E9" stroke="#0EA5E9" stroke-width="0.5"/>
</svg>
